<svg id="Group_8" data-name="Group 8" xmlns="http://www.w3.org/2000/svg" width="28" height="28" viewBox="0 0 28 28">
  <g id="Group">
    <path id="Path" d="M0,0H28V28H0Z" fill="none"/>
    <path id="Shape" d="M4.477,23.189a.935.935,0,0,1-.436-.761l-.064-2.076a.928.928,0,0,0-.312-.665A11.063,11.063,0,0,1,0,11.317C0,4.815,5.095,0,11.667,0S23.333,4.815,23.333,11.317,18.239,22.633,11.667,22.633a12.7,12.7,0,0,1-3.378-.448.933.933,0,0,0-.623.046L5.351,23.252a.934.934,0,0,1-.875-.063Z" transform="translate(2.333 2.333)" fill="#100f0f"/>
  </g>
</svg>
