<svg xmlns="http://www.w3.org/2000/svg" xmlns:xlink="http://www.w3.org/1999/xlink" width="1480" height="394" viewBox="0 0 1480 394">
  <defs>
    <clipPath id="clip-path">
      <rect id="bg" width="1480" height="394" fill="#53f"/>
    </clipPath>
  </defs>
  <g id="Learn" clip-path="url(#clip-path)">
    <g id="Group_2" data-name="Group 2">
      <g id="Group_3" data-name="Group 3">
        <g id="Group_4" data-name="Group 4">
          <g id="Group_1" data-name="Group 1" transform="translate(-7 5)">
            <g id="icon" transform="translate(1379.459 -72.481)">
              <path id="Fill_1" data-name="Fill 1" d="M0,384V144.906C0,65-65.289,0-145.549,0A145.216,145.216,0,0,0-288.8,119.392L-303,231.952h46.447v72.9h82.792L-174,385" transform="translate(-78.459 89.481)" fill="none" stroke="#fff" stroke-miterlimit="10" stroke-width="3" opacity="0.6" style="mix-blend-mode: screen;isolation: isolate"/>
              <path id="Fill_1-2" data-name="Fill 1" d="M0,436V183.028C0,82.107-82.3,0-183.483,0a183.161,183.161,0,0,0-180.59,150.8l-21.3,158.066h58.552l-.2,75.29h79.706V436" transform="translate(-39.272 45.481)" fill="none" stroke="#fff" stroke-miterlimit="10" stroke-width="3" opacity="0.4" style="mix-blend-mode: screen;isolation: isolate"/>
              <path id="Fill_1-3" data-name="Fill 1" d="M0,556V221.339C0,99.293-99.506,0-221.831,0A221.458,221.458,0,0,0-440.165,182.368l-25.794,204.613h70.789V465.69h82.208l.041,58.673" fill="none" stroke="#fff" stroke-miterlimit="10" stroke-width="3" opacity="0.2" style="mix-blend-mode: screen;isolation: isolate"/>
              <path id="Path" d="M-72.92,126H-25.1V111.81c0-10.747,3.981-20.942,10.924-27.964A49.153,49.153,0,0,0-.709,40.792,49.106,49.106,0,0,0-42.931.349,49.23,49.23,0,0,0-81.5,12.378,49.494,49.494,0,0,0-98,49.3,48.889,48.889,0,0,0-83.665,84.026C-76.833,90.868-72.92,101-72.92,111.821Z" transform="translate(-173.459 185.481)" fill="none" stroke="#fff" stroke-miterlimit="10" stroke-width="3" opacity="0.6" style="mix-blend-mode: screen;isolation: isolate"/>
              <path id="Fill_5" data-name="Fill 5" d="M-.5,20v0Z" transform="translate(-216.459 152.481)" fill="none" stroke="#fff" stroke-miterlimit="10" stroke-width="3" opacity="0.4" style="mix-blend-mode: screen;isolation: isolate"/>
              <path id="Fill_7" data-name="Fill 7" d="M-15,15,0,0Z" transform="translate(-157.459 180.481)" fill="none" stroke="#fff" stroke-miterlimit="10" stroke-width="3" opacity="0.4" style="mix-blend-mode: screen;isolation: isolate"/>
              <path id="Fill_8" data-name="Fill 8" d="M-20,.5h0Z" transform="translate(-138.459 231.481)" fill="none" stroke="#fff" stroke-miterlimit="10" stroke-width="3" opacity="0.4" style="mix-blend-mode: screen;isolation: isolate"/>
              <path id="Fill_9" data-name="Fill 9" d="M-20,.5h0Z" transform="translate(-285.459 231.481)" fill="none" stroke="#fff" stroke-miterlimit="10" stroke-width="3" opacity="0.4" style="mix-blend-mode: screen;isolation: isolate"/>
              <path id="Fill_10" data-name="Fill 10" d="M0,15-15,0Z" transform="translate(-261.459 171.481)" fill="none" stroke="#fff" stroke-miterlimit="10" stroke-width="3" opacity="0.4" style="mix-blend-mode: screen;isolation: isolate"/>
              <path id="Fill_11" data-name="Fill 11" d="M-48,.5h0Z" transform="translate(-197.459 323.481)" fill="none" stroke="#fff" stroke-miterlimit="10" stroke-width="3" opacity="0.4" style="mix-blend-mode: screen;isolation: isolate"/>
              <path id="Fill_11_Copy" data-name="Fill 11 Copy" d="M-33,.5h0Z" transform="translate(-204.459 332.481)" fill="none" stroke="#fff" stroke-miterlimit="10" stroke-width="3" opacity="0.4" style="mix-blend-mode: screen;isolation: isolate"/>
            </g>
          </g>
        </g>
      </g>
    </g>
  </g>
</svg>
