<svg xmlns="http://www.w3.org/2000/svg" width="48" height="48" viewBox="0 0 48 48">
  <g id="Group_6" data-name="Group 6" transform="translate(0 -64)">
    <g id="in" transform="translate(0 64)">
      <rect id="Rectangle" width="48" height="48" rx="24" fill="#1e418c"/>
      <g id="Group" transform="translate(10.667 10.667)">
        <path id="Path" d="M0,0H26.667V26.667H0Z" fill="none"/>
        <path id="Shape" d="M16.789,20V12.7c0-4.444-5.3-4.066-5.3,0V20H7.111V6.09h4.423l-.045,1.867c1.845-3.367,9.689-3.622,9.689,3.233V20ZM.067,20V6.09H4.511V20ZM2.221,4.444A2.222,2.222,0,1,1,4.444,2.223,2.221,2.221,0,0,1,2.221,4.444Z" transform="translate(3.267 3.332)" fill="#fff"/>
      </g>
    </g>
  </g>
</svg>
