<svg xmlns="http://www.w3.org/2000/svg" width="79.616" height="24" viewBox="0 0 79.616 24">
  <g id="Group_7" data-name="Group 7" transform="translate(-48 -34)">
    <g id="Logo" transform="translate(48 34)">
      <path id="P" d="M0,24V0H10.508q4.406,0,6.763,2.237a7.884,7.884,0,0,1,2.356,6,8.178,8.178,0,0,1-1.051,4.118,7.493,7.493,0,0,1-3.1,2.932,10.507,10.507,0,0,1-4.966,1.085H7.526V24Z" fill="#100f0f"/>
      <path id="E" d="M7.525,6V8.949h7.458V14.61H7.525V18H16v6H0V0H16V6Z" transform="translate(23.883)" fill="#100f0f"/>
      <path id="K" d="M14.508,24,7.525,13.593V24H0V0H7.525V10.1L14.407,0h8.508L14.644,11.492,23.458,24Z" transform="translate(44.614)" fill="#100f0f"/>
      <path id="İ" d="M0,24V8.934H7.526V24ZM0,4.708V0H7.526V4.708Z" transform="translate(72.09)" fill="#100f0f"/>
    </g>
  </g>
</svg>
