<svg xmlns="http://www.w3.org/2000/svg" width="64" height="64" viewBox="0 0 64 64">
  <g id="Group_17" data-name="Group 17" transform="translate(-84)">
    <g id="logo" transform="translate(84)">
      <rect id="Rectangle" width="64" height="64" rx="32" fill="#fff"/>
      <g id="Group" transform="translate(10.794 10.794)">
        <path id="Path" d="M0,0H42.667V42.667H0Z" fill="none"/>
        <path id="Shape" d="M6.754,34.984A1.41,1.41,0,0,1,6.1,33.836L6,30.7a1.4,1.4,0,0,0-.472-1A16.69,16.69,0,0,1,0,17.073C0,7.264,7.686,0,17.6,0S35.2,7.264,35.2,17.073,27.516,34.145,17.6,34.145a19.181,19.181,0,0,1-5.1-.676,1.412,1.412,0,0,0-.94.068L8.073,35.08a1.41,1.41,0,0,1-1.319-.1Z" transform="translate(4.267 3.2)" fill="#100f0f"/>
      </g>
    </g>
  </g>
</svg>
