<svg xmlns="http://www.w3.org/2000/svg" width="37.302" height="40.532" viewBox="0 0 37.302 40.532">
  <g id="Group_34" data-name="Group 34" transform="translate(-4.698 -4)">
    <path id="Shape" d="M21.524,38.584a29.813,29.813,0,0,0,3.764-13.672L25.3,24V22h4v2a33.863,33.863,0,0,1-3.83,15.691l-.454.841Zm-9.176-.676A21.888,21.888,0,0,0,17.29,24.732L17.3,24V16h4v8l-.01.758a25.881,25.881,0,0,1-5.382,15.1l-.463.58ZM5.44,33.654a13.935,13.935,0,0,0,3.85-9.048L9.3,24V18a10,10,0,1,1,20,0h-4a6,6,0,1,0-12,0v6A17.944,17.944,0,0,1,8.76,35.954l-.424.46Zm26.53.352a37.947,37.947,0,0,0,1.316-8.869L33.3,24V18A14,14,0,0,0,10.918,6.788L8.068,3.936A18,18,0,0,1,37.3,18v6a42.082,42.082,0,0,1-1.194,9.98l-.278,1.077ZM0,26.95a9.9,9.9,0,0,0,1.292-4.366L1.31,22V18A17.877,17.877,0,0,1,5.238,6.766L8.09,9.616a13.936,13.936,0,0,0-2.78,7.9L5.3,18l.008,4a13.929,13.929,0,0,1-1.524,6.354l-.312.58Z" transform="translate(4.698 4)" fill="#100f0f"/>
  </g>
</svg>
