<svg id="Group_16" data-name="Group 16" xmlns="http://www.w3.org/2000/svg" width="64" height="64" viewBox="0 0 64 64">
  <g id="logo">
    <rect id="bg" width="64" height="64" rx="32" fill="#fff"/>
    <g id="Group" transform="translate(10.667 10.667)">
      <path id="Path" d="M0,0H42.667V42.667H0Z" fill="none"/>
      <path id="Shape" d="M10.45,35.449a13.142,13.142,0,0,1-4.316-.827,9.075,9.075,0,0,1-5.2-5.2,13.065,13.065,0,0,1-.826-4.316C.023,23.211,0,22.608,0,17.778s.018-5.432.107-7.328A13.065,13.065,0,0,1,.933,6.134a8.669,8.669,0,0,1,2.05-3.15A8.7,8.7,0,0,1,6.134.933,13.065,13.065,0,0,1,10.45.107C12.345.023,12.947,0,17.778,0s5.433.018,7.328.107a13.074,13.074,0,0,1,4.316.826,8.669,8.669,0,0,1,3.151,2.05,8.721,8.721,0,0,1,2.049,3.15,13.132,13.132,0,0,1,.827,4.316c.083,1.9.106,2.5.106,7.328s-.018,5.433-.106,7.328a13.142,13.142,0,0,1-.827,4.316,9.069,9.069,0,0,1-5.2,5.2,13.132,13.132,0,0,1-4.316.827c-1.895.083-2.5.106-7.328.106S12.345,35.537,10.45,35.449Z" transform="translate(3.556 3.556)" fill="#100f0f"/>
    </g>
  </g>
</svg>
