<svg xmlns="http://www.w3.org/2000/svg" xmlns:xlink="http://www.w3.org/1999/xlink" width="136" height="136" viewBox="0 0 136 136">
  <defs>
    <filter id="Rectangle" x="0" y="0" width="136" height="136" filterUnits="userSpaceOnUse">
      <feOffset dy="12" input="SourceAlpha"/>
      <feGaussianBlur stdDeviation="8" result="blur"/>
      <feFlood flood-opacity="0.078"/>
      <feComposite operator="in" in2="blur"/>
      <feComposite in="SourceGraphic"/>
    </filter>
  </defs>
  <g id="Group_15" data-name="Group 15" transform="translate(-336 12)">
    <g id="logo" transform="translate(360)">
      <g transform="matrix(1, 0, 0, 1, -24, -12)" filter="url(#Rectangle)">
        <rect id="Rectangle-2" data-name="Rectangle" width="88" height="88" rx="44" transform="translate(24 12)" fill="#fff"/>
      </g>
      <g id="Group" transform="translate(15.889 16.238)">
        <path id="Path" d="M0,0H58.667V58.667H0Z" fill="none"/>
        <path id="Path-2" data-name="Path" d="M50.283,4.809a20.834,20.834,0,0,1-5.926,1.608A10.273,10.273,0,0,0,48.9.762a20.735,20.735,0,0,1-6.552,2.481A10.386,10.386,0,0,0,29.939,1.21a10.188,10.188,0,0,0-5.174,11.354A29.385,29.385,0,0,1,3.5,1.883,10.174,10.174,0,0,0,6.693,15.531,10.355,10.355,0,0,1,2.02,14.253v.127A10.253,10.253,0,0,0,10.3,24.4a10.48,10.48,0,0,1-4.662.176,10.313,10.313,0,0,0,9.638,7.1A20.846,20.846,0,0,1,0,35.913a29.382,29.382,0,0,0,15.813,4.595c18.978,0,29.356-15.576,29.356-29.085,0-.44-.012-.885-.032-1.32a20.853,20.853,0,0,0,5.148-5.292Z" transform="translate(4.19 8.381)" fill="#100f0f"/>
      </g>
    </g>
  </g>
</svg>
