<svg xmlns="http://www.w3.org/2000/svg" xmlns:xlink="http://www.w3.org/1999/xlink" width="136" height="136" viewBox="0 0 136 136">
  <defs>
    <filter id="Rectangle" x="0" y="0" width="136" height="136" filterUnits="userSpaceOnUse">
      <feOffset dy="12" input="SourceAlpha"/>
      <feGaussianBlur stdDeviation="8" result="blur"/>
      <feFlood flood-opacity="0.078"/>
      <feComposite operator="in" in2="blur"/>
      <feComposite in="SourceGraphic"/>
    </filter>
  </defs>
  <g id="Group_13" data-name="Group 13" transform="translate(-96 12)">
    <g id="logo" transform="translate(120)">
      <g transform="matrix(1, 0, 0, 1, -24, -12)" filter="url(#Rectangle)">
        <rect id="Rectangle-2" data-name="Rectangle" width="88" height="88" rx="44" transform="translate(24 12)" fill="#fff"/>
      </g>
      <g id="Group" transform="translate(14.841 14.841)">
        <path id="Path" d="M0,0H58.667V58.667H0Z" fill="none"/>
        <path id="Shape" d="M9.286,48.1a1.937,1.937,0,0,1-.9-1.579l-.133-4.307a1.927,1.927,0,0,0-.648-1.38A22.946,22.946,0,0,1,0,23.475C0,9.987,10.568,0,24.2,0S48.4,9.987,48.4,23.475,37.834,46.949,24.2,46.949a26.349,26.349,0,0,1-7.006-.929,1.935,1.935,0,0,0-1.292.095l-4.8,2.119A1.938,1.938,0,0,1,9.286,48.1Z" transform="translate(5.867 4.4)" fill="#100f0f"/>
      </g>
    </g>
  </g>
</svg>
