<svg id="Group_5" data-name="Group 5" xmlns="http://www.w3.org/2000/svg" width="48" height="48" viewBox="0 0 48 48">
  <g id="Group_4" data-name="Group 4">
    <rect id="Rectangle" width="48" height="48" rx="24" fill="#1da1f2"/>
    <path id="Path" d="M24.2,3.5A5.6,5.6,0,0,0,26.671.415,11.31,11.31,0,0,1,23.1,1.769,5.665,5.665,0,0,0,16.33.66a5.557,5.557,0,0,0-2.822,6.193,16.028,16.028,0,0,1-11.6-5.826A5.55,5.55,0,0,0,3.651,8.472a5.648,5.648,0,0,1-2.549-.7v.069a5.592,5.592,0,0,0,4.514,5.467,5.716,5.716,0,0,1-2.543.1A5.625,5.625,0,0,0,8.331,17.28,11.371,11.371,0,0,1,0,19.589,16.027,16.027,0,0,0,8.625,22.1,15.825,15.825,0,0,0,24.638,6.231c0-.24-.007-.483-.017-.72a11.374,11.374,0,0,0,2.808-2.886A11.426,11.426,0,0,1,24.2,3.5Z" transform="translate(10.952 14.429)" fill="#fff"/>
  </g>
</svg>
