<svg xmlns="http://www.w3.org/2000/svg" width="64" height="64" viewBox="0 0 64 64">
  <g id="Group_19" data-name="Group 19" transform="translate(-252)">
    <g id="logo" transform="translate(252)">
      <rect id="Rectangle" width="64" height="64" rx="32" fill="#fff"/>
      <g id="Group" transform="translate(11.556 11.81)">
        <path id="Path" d="M0,0H42.667V42.667H0Z" fill="none"/>
        <path id="Path-2" data-name="Path" d="M36.57,3.5a15.152,15.152,0,0,1-4.309,1.17,7.471,7.471,0,0,0,3.3-4.113,15.08,15.08,0,0,1-4.765,1.8A7.554,7.554,0,0,0,21.774.88a7.409,7.409,0,0,0-3.763,8.258A21.371,21.371,0,0,1,2.546,1.37,7.4,7.4,0,0,0,4.867,11.3a7.531,7.531,0,0,1-3.4-.93v.092a7.456,7.456,0,0,0,6.019,7.29,7.622,7.622,0,0,1-3.391.128,7.5,7.5,0,0,0,7.01,5.164A15.161,15.161,0,0,1,0,26.119,21.369,21.369,0,0,0,11.5,29.46c13.8,0,21.35-11.328,21.35-21.153,0-.32-.009-.643-.023-.96A15.166,15.166,0,0,0,36.571,3.5Z" transform="translate(3.048 6.095)" fill="#100f0f"/>
      </g>
    </g>
  </g>
</svg>
